<svg xmlns="http://www.w3.org/2000/svg" viewBox="0 0 64 64">
  <g transform="translate(18.603 8.556) scale(.5233)">
    <path fill="#fff" d="M36.8 28.8q0 .65-.475 1.125T35.2 30.4q-.65 0-1.125-.475T33.6 28.8q0-2.3-2.7-3.55T25.6 24q-.65 0-1.125-.475T24 22.4q0-.65.475-1.125T25.6 20.8q2.5 0 4.975.8 2.475.8 4.35 2.7 1.875 1.9 1.875 4.5zm8 0q0-3.6-1.725-6.7t-4.5-5.075q-2.775-1.975-6.15-3.1Q29.05 12.8 25.6 12.8t-6.825 1.125q-3.375 1.125-6.15 3.1Q9.85 19 8.125 22.1T6.4 28.8q0 5.05 3.4 9 .5.55 1.525 1.65 1.025 1.1 1.525 1.65 6.4 7.65 7.05 14.9h11.4q.65-7.25 7.05-14.9.5-.55 1.525-1.65 1.025-1.1 1.525-1.65 3.4-3.95 3.4-9zm6.4 0q0 7.75-5.15 13.4-2.25 2.45-3.725 4.35-1.475 1.9-2.975 4.775-1.5 2.875-1.7 5.375Q40 58.1 40 60.8q0 1.85-1.25 3.2Q40 65.35 40 67.2q0 2.6-2.25 4.05.65 1.15.65 2.35 0 2.3-1.575 3.55T32.95 78.4q-1 2.2-3 3.5-2 1.3-4.35 1.3-2.35 0-4.35-1.3-2-1.3-3-3.5-2.3 0-3.875-1.25Q12.8 75.9 12.8 73.6q0-1.2.65-2.35-2.25-1.45-2.25-4.05 0-1.85 1.25-3.2-1.25-1.35-1.25-3.2 0-2.7 2.35-4.1-.2-2.5-1.7-5.375T8.875 46.55Q7.4 44.65 5.15 42.2 0 36.55 0 28.8q0-4.95 2.225-9.225 2.225-4.275 5.85-7.1 3.625-2.825 8.2-4.45Q20.85 6.4 25.6 6.4q4.75 0 9.325 1.625 4.575 1.625 8.2 4.45 3.625 2.825 5.85 7.1Q51.2 23.85 51.2 28.8z"/>
  </g>
</svg>
