<svg xmlns="http://www.w3.org/2000/svg" viewBox="0 0 64 64">
    <path
        fill="#e3e3e3"
        d="M39.66 21.06q0 .44-.32.77-.33.32-.77.32-.45 0-.77-.32-.33-.33-.33-.77 0-1.58-1.84-2.43-1.85-.86-3.63-.86-.44 0-.77-.32-.32-.33-.32-.77 0-.45.4-.77t.8-.3q1.7 0 3.4.6t3 1.9q1.3 1.3 1.3 3.1zm5.47 0q0-2.47-1.18-4.6-1.18-2.1-3.08-3.46-1.9-1.35-4.2-2.12-2.3-.77-4.67-.77-2.36 0-4.67.8-2.3.8-4.2 2.1-1.9 1.4-3.08 3.5-1.18 2.1-1.18 4.6 0 3.5 2.32 6.2.3.4 1 1.2l1 1.16q4.4 5.23 4.8 10.2h7.8q.4-4.97 4.8-10.2l1-1.13 1.02-1.15Q45 24.6 45 21.18zm4.38 0q0 5.3-3.5 9.16-1.5 1.68-2.5 2.98t-2 3.26q-1 1.97-1.1 3.68 1.6.96 1.6 2.8 0 1.27-.82 2.2.86.92.86 2.18 0 1.78-1.54 2.77.46.7.46 1.6 0 1.5-1.05 2.4-1.05.8-2.62.8-.7 1.5-2.05 2.4-1.4.9-3 .9t-3-.9q-1.34-.9-2.03-2.4-1.58 0-2.66-.9-1.07-.9-1.07-2.48 0-.83.43-1.6-1.54-1-1.54-2.8 0-1.25.87-2.2-.85-.9-.85-2.17 0-1.8 1.6-2.8-.1-1.7-1.13-3.66-1-1.96-2.02-3.26-1-1.3-2.53-3-3.5-3.86-3.5-9.16 0-3.4 1.5-6.3 1.53-2.96 4-4.9 2.5-1.94 5.6-3.05 3.1-1.1 6.38-1.1t6.4 1.1q3.13 1.1 5.6 3.05 2.5 1.9 4 4.84 1.53 2.92 1.53 6.3z"/>
</svg>
