<svg xmlns="http://www.w3.org/2000/svg" viewBox="0 0 64 64">
  <g transform="translate(12.583 14.065) scale(.4334)">
    <path fill="#fff" d="M64 35.2q0-1.3-.95-2.25T60.8 32q-8.6 0-15.9 2.475-7.3 2.475-12.975 6.7T20.15 52.15q-.95 1.05-.95 2.25 0 1.3.95 2.25t2.25.95q1.2 0 2.25-.95 1.35-1.2 3.7-3.55 2.35-2.35 3.35-3.3 6.85-6.2 13.425-8.8Q51.7 38.4 60.8 38.4q1.3 0 2.25-.95T64 35.2zm25.6-9.9q0 4.75-1 9.65-2.3 11.2-9.225 19.15Q72.45 62.05 61.5 67.5q-10.7 5.4-21.9 5.4-7.4 0-14.3-2.35-.75-.25-4.4-2.1-3.65-1.85-4.8-1.85-.8 0-1.975 1.6t-2.25 3.5Q10.8 73.6 9.25 75.2t-3 1.6q-1.5 0-2.55-.55-1.05-.55-1.55-1.2-.5-.65-1.35-2.1-.1-.2-.3-.55-.2-.35-.275-.5-.075-.15-.15-.475Q0 71.1 0 70.75 0 69 1.55 67.075 3.1 65.15 4.95 63.8q1.85-1.35 3.4-2.8 1.55-1.45 1.55-2.4 0-.2-.7-1.9t-.8-2.2q-.45-2.55-.45-5.2 0-5.75 2.175-11t5.95-9.225q3.775-3.975 8.525-6.95t10.2-4.775q2.75-.9 7.25-1.275 4.5-.375 8.975-.45 4.475-.075 8.925-.3 4.45-.225 8.175-1.2Q71.85 13.15 73.8 11.3l1.475-1.475 1.475-1.4q1.475-1.4 1.35-1-.125.4 1.825-.8 1.95-1.2 2.175-.225 1.95 0 3.525 2.3T88 14.3q.8 3.3 1.2 6.2.4 2.9.4 4.8z"/>
  </g>
</svg>
