<svg xmlns="http://www.w3.org/2000/svg" viewBox="0 0 64 64">
    <path
        fill="#e3e3e3"
        d="M43.3 28.3c-.25-2.68-3.47-1.8-5.3-1.72-6.82.62-13.16 4.05-17.9 8.94-1.15 1.5-4.05 2.92-2.92 5.14 2.07 2.4 4.22-1.2 5.73-2.45 4.1-4.2 9.4-7.5 15.3-7.8 1.8-.4 5 .7 5.1-2.02zm15.1-5.85c.04 7.45-3 14.98-8.8 19.78-6.8 5.83-15.98 9.53-25 7.96-2.92-.4-5.55-1.7-8.14-3-2.38-1.5-3.3 1.92-4.43 3.4-1 2.2-4.3 3.1-5.57.62-1.92-1.9-.3-4.44 1.46-5.7 1.47-1.3 4.6-2.77 2.86-5.1-1.75-6.04.74-12.85 5.4-16.97 4.2-3.85 9.7-6.55 15.5-6.63 5.18-.44 10.6.3 15.56-1.54 1.8-.6 2.88-2.55 4.38-3.45 1.52-1.16 3.73-.86 4.67 1.1 1.5 2.84 1.9 6.3 2.1 9.45z"/>
</svg>
