<svg xmlns="http://www.w3.org/2000/svg" xmlns:xlink="http://www.w3.org/1999/xlink" viewBox="0 0 64 64">
  <path fill="#fff" d="M21.3 39h-8.5q-1 0-1.6-1-.5-1 .2-1.8l5-6.8q-1.8-1-3.8-1-3.6 0-6 2.7Q4 34 4 38q0 3.6 2.6 6.2 2.7 2 6.4 2 3 0 5.4-2 2.4-2 3-5zm-5-3.5h5q-.5-2.4-2-4zm13.2 0L37.3 25H24l-2.6 3.6q3 2.7 3.4 7h4.6zM60 37.3q0-3.7-2.5-6.2-2.5-2-6-2-1.7 0-3.4.8l5 7q1 .7.8 1.4-.2.7-.8 1-.5.5-1 .5-1 0-1.5-.8l-4.7-7q-2.6 2.5-2.6 6 0 3.6 2.6 6 2.6 2.7 6.2 2.7t6-2.5q2-3 2-6.7zm3.6 0q0 5-3.6 8.6-3.6 3-8.6 3t-8.8-3Q39 42 39 37q0-2.8 1-5 1.2-2.4 3-4.2l-1.7-2.6-9.6 13q-.6.7-1.4.7h-5.5q-.6 5-4 8t-8 3q-5 0-8.6-3.7-3.7-4-3.7-9Q.5 32 4 28.7 7.7 25 13 25q3 0 5.8 1.5l3.8-5h-6q-1 0-1.4-.5-.6-.5-.6-1.2 0-.8.6-1.3.5-.4 1.3-.4H27v4h11.8l-2.5-4h-6q-.8 0-1.3-.2-.4-.5-.4-1.2T29 15q.7-.5 1.3-.5h7q1 0 1.4.8l7.4 11q3-1.3 6-1.3 5 0 8.6 4 3.7 3.5 3.7 8.6z"/>
</svg>
