<svg xmlns="http://www.w3.org/2000/svg" viewBox="0 0 64 64">
    <path
        fill="#e3e3e3"
        d="M22.8 37.6h-7q-1 0-1.4-.8-.4-.8.2-1.5l4-5.6q-1.4-.8-3-.8-3 0-5 2-2.2 2.3-2.2 5.6 0 3 2.2 5 2.2 1.8 5.3 1.8 2.2 0 4.2-1.7t2.4-4.2zm-4.2-3h4.2q-.4-2-1.7-3.2zm11 0L36 26H25l-2.2 3q2.5 2.3 3 5.8h3.7zm25.2 1.6q0-3-2-5-2-1.8-5-1.8-1.4 0-2.8.7l4 6q1 .7.8 1-.2.8-.7 1 0 .5-.5.5-1 0-1.3-.7L43 32q-2 2-2 5t2 5q2.4 2 5.4 2t5-2q1.6-2.4 1.6-5.5zm3 0q0 4.2-3 7-3 2.6-7 2.6-4.2 0-7.4-2.5-3-3.2-3-7.3 0-2.3 1-4.2.8-2 2.3-3.4l-1.4-2.2-8 10.8q-.4.5-1 .5h-4.6q-.5 4.2-3.3 6.7-3 2.5-6.7 2.5-4 0-7-3-3.2-3.4-3.2-7.6 0-4 3-7t7.4-3q2.2 0 4.5 1.5l3-4.2H19q-1 0-1.3-.3-.5-.5-.5-1t.5-1q.4-.5 1-.5h8.8v3.3h9.8l-2-3.3H29l-.2-1q0-.7.3-1.5 1-.5 1.4-.5H36q.8 0 1.2.7l6 9q2.6-1 5-1 4.2 0 7.2 3.4 3 2.8 3 7z"/>
</svg>
