<svg xmlns="http://www.w3.org/2000/svg" xmlns:xlink="http://www.w3.org/1999/xlink" viewBox="0 0 64 64">
  <path fill="#fff" d="M34 18.5V31h3v3.3c3.3.5 5-.8 6.2-2.5.2 5-2.8 5.6-6.2 5.8v7.8c4.6 0 12-1.7 12-8v8h10l-2-4.7c3.5-.5 6.7-2 6.7-6.3 0-4.8-5.4-8.8-5.5-12 0-2.7 3.4-2.5 3-1-.8-.5-1.7-.3-2 .8 0 1.4.8 2.3 2.4 2.2 1.3 0 2-1.4 2-3 0-4-7.7-4-7.8.7 0 1 0 2 .2 2h-1.4v-5h-1.2v5H52v-5h-1.3v5H49v-5H34zm8.4 2.5h.5v1c0 2.7-3 5-5 5h-1v-1c0-2.8 2-5 5-5zm6.5 3.7h1v12.7h-1V24.6zm3 0h1v12.5l-2 .2V24.7zm2 0h2c1 2 2.2 3.8 2.2 8 0 2-2 3.5-4.4 4.2V24zM9 18.5v5.3H8c.2-.5.2-1 .2-1.7 0-4-8-4-8 0 0 2 1 3 2.2 3C4 25 5 24 4.7 23c-.2-1-1-1.3-2-1-.3-1.3 3.2-1.5 3 1 0 3.4-5.4 7.4-5.4 12 0 4.5 3.2 6 6.7 6.5L5 46h10v-8c0 6.2 7.6 8 12 8v-8c-3-.6-5 .6-6 2.4-.2-4.8 2.8-5.5 6-5.7V31h3V18.4H15v5.3h-1.7v-5.3H12v5.3h-1.4v-5.3H9.4zM21 21c3 0 5 2.2 5 5v1c-2.7 0-5-2.3-5-5v-1h.6zM7 24.7h2V37c-2-1-4-2.3-4-4.4 0-4.2 1.8-6 2.7-8zm3 0h2v12.7c-.4 0-1 0-1.4-.2V24.7zm3 0h2v12.6h-2V24.8z"/>
</svg>
