<svg xmlns="http://www.w3.org/2000/svg" viewBox="0 0 64 64">
    <path
        fill="#e3e3e3"
        d="M22.78 10.27v8.5h-2.3c.22-.82.34-1.7.32-2.67-.16-7.56-12.73-7.43-12.73-1.06 0 2.46 1.3 4.77 3.37 4.78 2.57.02 3.93-1.4 3.6-3.68-.24-1.68-1.73-2.02-3.2-1.33-.4-2.37 5.15-2.67 5.04 1.55-.14 5.38-8.8 11.72-8.8 19.54 0 7.14 5.06 9.33 10.88 10.1l-3.13 7.67 16.13.07v-13.1c0 10.15 11.72 13 19.1 13v-12.7c-5.25-.67-8.07 1.28-10 4.13-.25-7.88 4.48-9.1 10-9.34v-5.57h4.87v-19.9H31.96v8.5H29v-8.5h-1.92v8.5H24.7v-8.5h-1.92zm19.57 3.92c4.43 0 8.02 3.57 8.02 8 0 .52-.06 1.04-.15 1.55l-.74.03c-4.42 0-8-3.6-8-8.02 0-.54.04-1.06.14-1.56.24-.02.5-.03.73-.03zm-22.42 6.1h2.85v19.65c-4.03-1.1-7.12-3.4-7.1-6.9.1-6.66 2.82-9.46 4.25-12.77zm4.77 0h2.38v20.4c-.8-.08-1.6-.18-2.38-.3V20.3zm4.3 0h2.96v20.27c-.96.12-1.96.18-2.96.18V20.3z"/>
</svg>
