<svg xmlns="http://www.w3.org/2000/svg" xmlns:xlink="http://www.w3.org/1999/xlink" viewBox="0 0 64 64">
  <path fill="#fff" d="M62 16.6q1.4 2 .6 4.7L52.3 54.8q-.6 2.4-2.8 4-2.2 1.6-4.4 1.6H11q-3 0-5.5-2-2.6-2-3.7-4.8Q1 51 1.8 49v-1.3l.2-1.3v-.7l-.2-.8q0-1 .3-1 0-1 1-1l1-1 1-3 1-3.6v-2.2l1-1 .6-.8L9 28q1-2 1-3.2v-2q-.3-1 0-1 0-.7.7-1.3.7-.5.7-.7.8-1 1.7-3 1-2 1-3.4v-2l.5-.7.6-1 .5-.7.6-1 .6-1.2.5-1 1-1q.3-.7 1-1 .5-.5 1.3-.6l1.6.2V4q1.3-.4 2-.4h28q2.7 0 4.2 2t1 5L47 44q-1.6 4.4-3 5.7-1.4 1.3-5 1.3H7q-1 0-1.5.5-.3.6 0 1.5 1 2.8 5.5 2.8h34.2q1 0 2-.6 1-.5 1.4-1.4l11-36.6q.3-.7.2-2.2 1.5.7 2.2 1.7zm-39.6 0q0 .4.2.7 0 .5.7.5h22.5q.4 0 1-.4.3-.3.4-.7l.8-2.4q.2-.5 0-.7-.2-.5-.8-.5H25q-.7 0-1 1l-.7 1zm-3 9.5v1q.3 1 .8 1h23.5l.6-1 .7-3q.2-.5 0-.7-.2-.6-.7-.6H21.8q-.5 0-1 .3h-.6z"/>
</svg>
